<svg xmlns="http://www.w3.org/2000/svg" viewBox="0 0 1600 820" role="img" aria-label="">
  <defs>
    <linearGradient id="mapBg" x1="0" y1="0" x2="1" y2="1">
      <stop offset="0" stop-color="#07110b"/>
      <stop offset="0.44" stop-color="#153d29"/>
      <stop offset="1" stop-color="#2b7445"/>
    </linearGradient>
    <radialGradient id="greenGlow" cx="70%" cy="48%" r="62%">
      <stop offset="0" stop-color="#9ccf7a" stop-opacity=".24"/>
      <stop offset=".5" stop-color="#3f9860" stop-opacity=".12"/>
      <stop offset="1" stop-color="#0b160f" stop-opacity="0"/>
    </radialGradient>
    <pattern id="dotGrid" width="9" height="9" patternUnits="userSpaceOnUse">
      <circle cx="2.2" cy="2.2" r="1.35" fill="#f2f7ec" opacity=".62"/>
    </pattern>
    <filter id="softGlow" x="-20%" y="-20%" width="140%" height="140%">
      <feGaussianBlur stdDeviation="3.2" result="blur"/>
      <feColorMatrix in="blur" type="matrix" values="0 0 0 0 0.70 0 0 0 0 0.92 0 0 0 0 0.62 0 0 0 .6 0"/>
      <feMerge>
        <feMergeNode/>
        <feMergeNode in="SourceGraphic"/>
      </feMerge>
    </filter>
    <filter id="lineGlow" x="-20%" y="-20%" width="140%" height="140%">
      <feGaussianBlur stdDeviation="2.8" result="blur"/>
      <feMerge>
        <feMergeNode in="blur"/>
        <feMergeNode in="SourceGraphic"/>
      </feMerge>
    </filter>
    <clipPath id="worldClip">
      <path d="M154 266c34-54 116-76 174-43 26 15 58 7 90 15 48 12 74 54 58 93-14 34-60 38-93 56-34 19-62 55-107 48-38-6-57-42-91-56-36-15-78-9-96-47-15-32 7-70 65-66Z"/>
      <path d="M372 428c48 18 74 56 64 102-7 32 21 56 24 88 4 44-36 92-77 105-31 10-54-20-47-58 8-44-22-76-45-111-29-44-23-106 71-126Z"/>
      <path d="M592 120c58-32 144-18 185 30 28 32 4 72-35 84-42 13-86 4-124-16-38-20-55-58-26-98Z"/>
      <path d="M720 274c36-28 90-41 137-26 38 12 73 5 108-7 42-14 86 5 108 38 25 38-8 76-48 85-48 11-89-20-135-13-46 7-79 46-127 31-43-13-74-53-43-108Z"/>
      <path d="M860 394c72-33 158-12 187 51 17 37-8 71-27 104-17 29-2 61-24 87-30 36-93 29-126-12-36-44-77-82-72-139 3-37 23-67 62-91Z"/>
      <path d="M990 268c74-36 180-26 264-6 58 14 118 7 170 37 38 22 42 64 6 90-42 31-102 7-151 20-73 20-117 83-194 76-58-5-90-49-126-89-33-37-30-87 31-128Z"/>
      <path d="M1192 486c38-22 91-8 119 25 22 26 20 64-6 87-28 25-83 22-113-11-26-30-32-62 0-101Z"/>
      <path d="M1354 584c45-15 86 2 116 34 21 22 38 52 16 76-24 27-73 18-105-5-35-26-59-62-27-105Z"/>
      <path d="M680 210c24-18 54-10 75 10 21 20 24 49-4 59-29 11-61-5-75-29-9-16-12-31 4-40Z"/>
      <path d="M544 276c28-8 55 6 76 24 21 18 14 43-14 50-31 8-65-8-78-35-8-17-5-31 16-39Z"/>
    </clipPath>
  </defs>
  <rect width="1600" height="820" fill="url(#mapBg)"/>
  <rect width="1600" height="820" fill="url(#greenGlow)"/>
  <g opacity=".12" stroke="#e7f2df" stroke-width="1">
    <path d="M0 206h1600M0 410h1600M0 614h1600M200 0v820M400 0v820M600 0v820M800 0v820M1000 0v820M1200 0v820M1400 0v820"/>
  </g>
  <g clip-path="url(#worldClip)" filter="url(#softGlow)">
    <rect x="80" y="70" width="1440" height="680" fill="url(#dotGrid)"/>
    <g fill="none" stroke="#eef7e9" stroke-opacity=".34" stroke-width="2.2">
      <path d="M154 266c34-54 116-76 174-43 26 15 58 7 90 15 48 12 74 54 58 93-14 34-60 38-93 56-34 19-62 55-107 48-38-6-57-42-91-56-36-15-78-9-96-47-15-32 7-70 65-66Z"/>
      <path d="M372 428c48 18 74 56 64 102-7 32 21 56 24 88 4 44-36 92-77 105-31 10-54-20-47-58 8-44-22-76-45-111-29-44-23-106 71-126Z"/>
      <path d="M592 120c58-32 144-18 185 30 28 32 4 72-35 84-42 13-86 4-124-16-38-20-55-58-26-98Z"/>
      <path d="M720 274c36-28 90-41 137-26 38 12 73 5 108-7 42-14 86 5 108 38 25 38-8 76-48 85-48 11-89-20-135-13-46 7-79 46-127 31-43-13-74-53-43-108Z"/>
      <path d="M860 394c72-33 158-12 187 51 17 37-8 71-27 104-17 29-2 61-24 87-30 36-93 29-126-12-36-44-77-82-72-139 3-37 23-67 62-91Z"/>
      <path d="M990 268c74-36 180-26 264-6 58 14 118 7 170 37 38 22 42 64 6 90-42 31-102 7-151 20-73 20-117 83-194 76-58-5-90-49-126-89-33-37-30-87 31-128Z"/>
      <path d="M1192 486c38-22 91-8 119 25 22 26 20 64-6 87-28 25-83 22-113-11-26-30-32-62 0-101Z"/>
      <path d="M1354 584c45-15 86 2 116 34 21 22 38 52 16 76-24 27-73 18-105-5-35-26-59-62-27-105Z"/>
    </g>
  </g>
  <g fill="#f5fbef" opacity=".64" filter="url(#softGlow)">
    <circle cx="196" cy="298" r="4.6"/>
    <circle cx="332" cy="342" r="3.6"/>
    <circle cx="488" cy="608" r="5.1"/>
    <circle cx="708" cy="222" r="4.2"/>
    <circle cx="830" cy="320" r="3.5"/>
    <circle cx="1026" cy="420" r="5.6"/>
    <circle cx="1180" cy="338" r="4.4"/>
    <circle cx="1322" cy="400" r="4.8"/>
    <circle cx="1412" cy="678" r="5.2"/>
  </g>
  <g fill="none" stroke-linecap="round" stroke-dasharray="10 16" filter="url(#lineGlow)" opacity=".72">
    <path d="M430 356C614 224 898 196 1218 316" stroke="#78d27f" stroke-width="4"/>
    <path d="M498 402C706 306 1010 310 1308 452" stroke="#d9eaa0" stroke-width="4"/>
  </g>
</svg>
